<?xml version="1.0" standalone="no"?><!DOCTYPE svg PUBLIC "-//W3C//DTD SVG 1.1//EN" "http://www.w3.org/Graphics/SVG/1.1/DTD/svg11.dtd"><svg t="1729003763395" class="icon" viewBox="0 0 1024 1024" version="1.1" xmlns="http://www.w3.org/2000/svg" p-id="7079" xmlns:xlink="http://www.w3.org/1999/xlink" width="200" height="200"><path d="M827.733333 249.173333a69.973333 69.973333 0 0 0-34.133333-20.48V133.12a88.746667 88.746667 0 0 0-23.893333-59.733333 85.333333 85.333333 0 0 0-59.733334-23.893334H244.053333a119.466667 119.466667 0 0 0-80.213333 32.426667 116.053333 116.053333 0 0 0-32.426667 80.213333v711.68a97.28 97.28 0 0 0 32.426667 71.68 98.986667 98.986667 0 0 0 69.973333 29.013334h552.96a66.56 66.56 0 0 0 46.08-18.773334 61.44 61.44 0 0 0 18.773334-44.373333V308.906667a85.333333 85.333333 0 0 0-23.893334-59.733334z m-645.12 13.653334v-5.12h3.413334z m225.28 354.986666l-87.04 87.04a25.6 25.6 0 0 1-18.773333 6.826667 23.893333 23.893333 0 0 1-17.066667-6.826667 23.893333 23.893333 0 0 1 0-35.84l68.266667-69.973333-68.266667-68.266667a27.306667 27.306667 0 0 1 0-37.546666 25.6 25.6 0 0 1 35.84 0l87.04 88.746666a20.48 20.48 0 0 1 8.533334 17.066667 27.306667 27.306667 0 0 1-8.533334 18.773333z m244.053334 6.826667h-151.893334a25.6 25.6 0 0 1 0-51.2h151.893334a25.6 25.6 0 0 1 0 51.2z m90.453333-401.066667H244.053333l-23.893333-3.413333-18.773333-13.653333a71.68 71.68 0 0 1-13.653334-20.48 54.613333 54.613333 0 0 1-5.12-23.893334A58.026667 58.026667 0 0 1 201.386667 119.466667a61.44 61.44 0 0 1 42.666666-18.773334h465.92a34.133333 34.133333 0 0 1 23.893334 10.24 32.426667 32.426667 0 0 1 8.533333 22.186667z" fill="#515151" p-id="7080"></path></svg>