<?xml version="1.0" standalone="no"?><!DOCTYPE svg PUBLIC "-//W3C//DTD SVG 1.1//EN" "http://www.w3.org/Graphics/SVG/1.1/DTD/svg11.dtd"><svg t="1729003586266" class="icon" viewBox="0 0 1024 1024" version="1.1" xmlns="http://www.w3.org/2000/svg" p-id="4745" xmlns:xlink="http://www.w3.org/1999/xlink" width="200" height="200"><path d="M686.511 214.976c-46.56-46.56-108.563-72.193-174.513-72.193-65.947 0-127.842 25.634-174.51 72.306-46.667 46.555-72.3 108.559-72.3 174.509 0 65.947 25.634 127.842 72.3 174.51 46.56 46.667 108.563 72.305 174.51 72.305 65.95 0 127.847-25.638 174.513-72.305 46.668-46.668 72.302-108.671 72.302-174.621 0-65.948-25.746-127.952-72.302-174.511zM512.478 560.119c-16.686 0-30.226-13.535-30.226-30.226 0-17.406 14.733-31.388 32.402-30.15 14.9 1.045 26.963 13.125 27.982 28.027 1.206 17.651-12.765 32.349-30.158 32.349z m76.094-166.214c-24.218 16.472-36.673 30.689-42.85 41.576-4.903 8.725-10.591 17.257-10.591 34.418v7.881l-45.89 0.2v-8.181c0-19.608 3.825-35.984 13.824-53.834 9.806-17.353 24.223-33.828 55.112-54.912 10.199-6.961 26.867-25.789 22.257-43.046-6.274-23.831-25.201-35.106-51.579-37.558-20.494-1.962-43.831 7.062-55.4 16.476-10.984 8.921-22.457 26.082-24.712 47.068l-46.675-4.121c4.41-40.988 22.356-63.444 36.577-75.113 20.394-16.668 57.852-31.77 95.607-28.241 26.081 2.452 47.46 10.984 63.444 25.4 13.139 11.765 22.26 27.26 27.259 46.183 9.411 35.302-11.671 68.935-36.383 85.804zM615.426 712.69v74.938H408.451v-76.85c-19.991-6.826-39.264-15.683-57.582-26.339v128.09c0 2.87 0.24 5.863 0.719 8.739 3.595 37.948 21.908 72.903 51.597 98.758 29.689 25.86 68.233 40.104 108.574 40.104 38.549 0 75.778-13.169 104.988-37.111 28.607-23.464 47.523-55.543 53.627-90.739 1.677-5.389 2.635-11.012 2.635-16.758v-127.85a323.366 323.366 0 0 1-57.583 25.018zM511.758 902.672c-41.895 0-78.645-23.703-94.69-57.582h189.38c-16.04 34.118-52.909 57.582-94.69 57.582z m0 0" p-id="4746" fill="#ffffff"></path><path d="M742.2 159.278c-61.529-61.529-143.293-95.409-230.203-95.409-87.026 0-168.787 33.88-230.198 95.409-61.412 61.529-95.409 143.293-95.409 230.198 0 86.91 33.879 168.792 95.409 230.203 20.108 20.109 42.495 37.348 66.438 51.352 49.2 28.731 105.345 44.057 163.76 44.057 56.267 0 110.372-14.246 158.258-40.941 26.095-14.485 50.276-32.799 71.945-54.468 61.529-61.529 95.409-143.293 95.409-230.203 0-86.906-33.88-168.67-95.409-230.198z m-32.354 428.164c-52.907 52.907-123.08 81.973-197.849 81.973-74.765 0-145.06-29.066-197.845-81.973-52.907-52.908-81.968-123.08-81.968-197.845 0-74.769 29.061-145.063 81.968-197.844 52.908-52.913 123.08-81.974 197.845-81.974 74.769 0 145.063 29.061 197.849 81.847 52.781 52.786 81.969 123.08 81.969 197.845 0.001 74.769-29.061 145.063-81.969 197.971z" p-id="4747" fill="#ffffff"></path></svg>